<svg width="749" height="700" viewBox="0 0 561.75 525" xmlns="http://www.w3.org/2000/svg" xmlns:xlink="http://www.w3.org/1999/xlink">
<g id="graph0" class="graph" transform="translate(67.82501220703125,252.3000030517578) scale(1)">
<title>finite_state_machine</title>
<polygon fill="white" stroke="none" points="-4,4 -4,-69.8 219.43,-69.8 219.43,4 -4,4"/>
<!-- 0 -->
<g id="node1" class="node">
<title>0</title>
<ellipse fill="none" stroke="black" cx="13" cy="-29" rx="9" ry="9"/>
<ellipse fill="none" stroke="black" cx="13" cy="-29" rx="13" ry="13"/>
</g>
<!-- 2 -->
<g id="node3" class="node">
<title>11</title>
<ellipse fill="none" stroke="black" cx="77.21" cy="-49" rx="9" ry="9"/>
</g>
<!-- 0&#45;&gt;2 -->
<g id="edge1" class="edge">
<title>0-&gt;11</title>
<path fill="none" stroke="black" d="M25.7,-32.76C34.61,-35.62 47.05,-39.62 57.35,-42.94"/>
<polygon fill="black" stroke="black" points="56.1,-46.21 66.69,-45.94 58.24,-39.54 56.1,-46.21"/>
<text text-anchor="middle" x="47.11" y="-44.4" font-family="Helvetica,Arial,sans-serif" font-size="14.00">a</text>
</g>
<!-- 1 -->
<g id="node5" class="node">
<title>21</title>
<ellipse fill="none" stroke="black" cx="77.21" cy="-9" rx="9" ry="9"/>
</g>
<!-- 0&#45;&gt;1 -->
<g id="edge4" class="edge">
<title>0-&gt;21</title>
<path fill="none" stroke="black" d="M25.62,-24.61C31.16,-22.57 37.89,-20.17 44,-18.2 48.35,-16.8 53.07,-15.39 57.52,-14.11"/>
<polygon fill="black" stroke="black" points="58.08,-17.59 66.77,-11.53 56.2,-10.84 58.08,-17.59"/>
<text text-anchor="middle" x="47.11" y="-22.4" font-family="Helvetica,Arial,sans-serif" font-size="14.00">a</text>
</g>
<!-- 3 -->
<g id="node2" class="node">
<title>100</title>
<ellipse fill="none" stroke="black" cx="202.43" cy="-29" rx="9" ry="9"/>
<ellipse fill="none" stroke="black" cx="202.43" cy="-29" rx="13" ry="13"/>
</g>
<!-- 4 -->
<g id="node4" class="node">
<title>12</title>
<ellipse fill="none" stroke="black" cx="137.43" cy="-49" rx="9" ry="9"/>
</g>
<!-- 8 -->
<g id="edge2" class="edge">
<title>11-&gt;12</title>
<path fill="none" stroke="black" d="M86.31,-49C94.13,-49 106.28,-49 116.65,-49"/>
<polygon fill="black" stroke="black" points="116.51,-52.5 126.51,-49 116.51,-45.5 116.51,-52.5"/>
<text text-anchor="middle" x="107.32" y="-53.2" font-family="Helvetica,Arial,sans-serif" font-size="14.00">a</text>
</g>
<!-- 6 -->
<g id="edge3" class="edge">
<title>12-&gt;100</title>
<path fill="none" stroke="black" d="M146.41,-46.47C154.57,-43.88 167.61,-39.73 178.96,-36.13"/>
<polygon fill="black" stroke="black" points="179.97,-39.48 188.44,-33.12 177.85,-32.81 179.97,-39.48"/>
<text text-anchor="middle" x="167.93" y="-44.4" font-family="Helvetica,Arial,sans-serif" font-size="14.00">b</text>
</g>
<!-- 8&#45;&gt;6 -->
<g id="node6" class="node">
<title>22</title>
<ellipse fill="none" stroke="black" cx="137.43" cy="-9" rx="9" ry="9"/>
</g>
<!-- 5 -->
<g id="edge5" class="edge">
<title>21-&gt;22</title>
<path fill="none" stroke="black" d="M86.31,-9C94.13,-9 106.28,-9 116.65,-9"/>
<polygon fill="black" stroke="black" points="116.51,-12.5 126.51,-9 116.51,-5.5 116.51,-12.5"/>
<text text-anchor="middle" x="107.32" y="-13.2" font-family="Helvetica,Arial,sans-serif" font-size="14.00">a</text>
</g>
<!-- 8&#45;&gt;5 -->
<g id="edge6" class="edge">
<title>22-&gt;100</title>
<path fill="none" stroke="black" d="M146.61,-11.1C153.32,-12.87 163.04,-15.53 171.43,-18.2 173.91,-18.99 176.5,-19.86 179.07,-20.75"/>
<polygon fill="black" stroke="black" points="177.79,-24.01 188.39,-24.08 180.15,-17.42 177.79,-24.01"/>
<text text-anchor="middle" x="167.93" y="-22.4" font-family="Helvetica,Arial,sans-serif" font-size="14.00">a</text>
</g>
</g>
</svg>